<?xml version="1.0" standalone="no"?>
<!DOCTYPE svg PUBLIC "-//W3C//DTD SVG 20010904//EN"
 "http://www.w3.org/TR/2001/REC-SVG-20010904/DTD/svg10.dtd">
<svg version="1.0" xmlns="http://www.w3.org/2000/svg"
 width="512.000000pt" height="512.000000pt" viewBox="0 0 512.000000 512.000000"
 preserveAspectRatio="xMidYMid meet">
<metadata>
Created by potrace 1.11, written by Peter Selinger 2001-2013
</metadata>
<g transform="translate(0.000000,512.000000) scale(0.100000,-0.100000)"
fill="#000000" stroke="none">
<path d="M430 3101 l0 -229 98 -6 c53 -4 123 -9 155 -12 l57 -5 0 70 c0 99 2
101 71 101 l59 0 0 -474 c0 -423 -2 -475 -16 -480 -9 -3 -46 -6 -83 -6 l-68 0
-7 -46 c-3 -26 -6 -87 -6 -135 l0 -89 355 0 355 0 0 140 0 140 -85 0 -85 0 0
475 0 475 60 0 60 0 0 -84 0 -84 98 5 c53 3 124 8 157 12 l60 6 1 155 c0 85
-1 188 -4 228 l-4 72 -614 0 -614 0 0 -229z"/>
<path d="M1710 3303 c0 -16 -3 -74 -7 -130 l-6 -102 27 -11 c15 -5 46 -10 68
-10 l40 0 -6 -157 c-4 -87 -11 -221 -16 -298 -6 -77 -14 -225 -19 -329 -7
-136 -14 -191 -23 -197 -7 -5 -37 -9 -65 -9 l-53 0 0 -135 0 -135 305 0 306 0
-3 138 -3 137 -73 3 -74 3 7 352 c4 194 8 353 9 354 2 2 19 -46 202 -589 l87
-258 138 0 137 0 31 93 c16 50 68 205 116 342 47 138 100 293 118 345 l32 95
3 -364 c2 -285 -1 -366 -10 -373 -7 -4 -36 -8 -64 -8 -63 0 -64 -1 -64 -157
l0 -113 310 0 310 0 0 140 0 140 -70 0 -70 0 0 68 c0 37 -7 184 -15 327 -30
527 -32 570 -23 582 5 7 35 13 66 15 l57 3 3 133 3 132 -258 -2 -257 -3 -48
-140 c-26 -77 -102 -302 -169 -500 -67 -198 -123 -361 -124 -363 -1 -1 -78
225 -171 503 l-169 505 -257 0 -258 0 0 -27z"/>
<path d="M3455 3278 c-3 -29 -5 -132 -3 -228 l3 -175 60 -6 c33 -4 104 -9 158
-12 l97 -5 0 84 0 84 65 0 65 0 0 -474 c0 -423 -2 -475 -16 -480 -9 -3 -49 -6
-90 -6 l-74 0 0 -135 0 -135 355 0 356 0 -3 138 -3 137 -82 3 -83 3 0 474 0
475 54 0 c64 0 66 -3 66 -102 l0 -70 48 6 c26 3 95 8 155 12 l107 6 0 229 0
229 -614 0 -615 0 -6 -52z"/>
</g>
</svg>
